<svg width="512" height="512" fill="none" xmlns="http://www.w3.org/2000/svg"><path fill="#131314" d="M0 0h512v512H0z"/><path d="M210.729 159.557h37.475v72.998l68.604-72.998h48.462l-73.243 73.486L369.542 339h-47.485l-55.542-79.468-18.311 18.677V339h-37.475V159.557z" fill="#fff"/><path d="M128.391 282.534c0-10.254-3.093-18.107-9.278-23.559-3.743-3.337-9.114-5.982-16.113-7.935v-14.77c7.894-2.686 13.468-5.656 16.724-8.912 5.778-5.615 8.667-14.2 8.667-25.756v-32.715c0-4.151.691-8.505 2.075-13.062 2.441-7.894 6.592-14.16 12.451-18.799 5.371-4.231 11.678-7.039 18.921-8.422 4.394-.896 10.701-1.384 18.921-1.465v19.409c-6.755 1.465-11.353 3.418-13.794 5.859-3.744 3.744-5.615 10.295-5.615 19.654v28.32c0 9.114-1.221 16.357-3.662 21.728-4.151 9.034-12.289 16.358-24.415 21.973 10.987 4.476 18.352 9.684 22.095 15.625 3.825 5.941 5.819 14.16 5.982 24.658v30.884c0 9.033 2.197 15.544 6.591 19.531 2.442 2.36 6.714 4.435 12.818 6.226v19.409l-8.667-.244c-11.638-.326-21.851-3.825-30.64-10.498-8.708-6.592-13.061-16.235-13.061-28.931v-38.208z" fill="#FA4B58"/></svg>